<?xml version="1.0" encoding="UTF-8"?>
<svg version="1.1" xmlns="http://www.w3.org/2000/svg" width="512" height="512">
<path d="M0 0 C168.96 0 337.92 0 512 0 C512 168.96 512 337.92 512 512 C343.04 512 174.08 512 0 512 C0 343.04 0 174.08 0 0 Z " fill="#000000" transform="translate(0,0)"/>
<path d="M0 0 C9.9 0 19.8 0 30 0 C30.33 19.47 30.66 38.94 31 59 C33.31 52.73 35.62 46.46 38 40 C40.11938524 34.30249422 42.25443633 28.61115647 44.3996582 22.92333984 C45.01878174 21.27973988 45.6362413 19.63551233 46.25219727 17.99072266 C47.1605895 15.56534616 48.07386184 13.14185949 48.98828125 10.71875 C49.26223221 9.98450806 49.53618317 9.25026611 49.81843567 8.49377441 C50.99346425 5.39491711 52.15263274 2.77105089 54 0 C56.88916016 -0.34057617 56.88916016 -0.34057617 60.5390625 -0.29296875 C62.49199219 -0.2784668 62.49199219 -0.2784668 64.484375 -0.26367188 C65.86458923 -0.23860388 67.24479756 -0.21320902 68.625 -0.1875 C70.01300663 -0.17245517 71.40102867 -0.15876641 72.7890625 -0.14648438 C76.19309509 -0.1110257 79.59635622 -0.06160298 83 0 C81.10123623 6.6277768 78.93528808 13.07555109 76.4375 19.5 C76.09335052 20.39448349 75.74920105 21.28896698 75.3946228 22.21055603 C74.65258866 24.13812415 73.90891922 26.06506341 73.16375732 27.99142456 C71.15663039 33.18030086 69.1614295 38.37376714 67.1640625 43.56640625 C66.5387413 45.19045128 66.5387413 45.19045128 65.90078735 46.8473053 C61.0202268 59.52934245 56.19704471 72.23312515 51.375 84.9375 C50.53127437 87.15951446 49.68752498 89.3815199 48.84375 91.60351562 C46.89516807 96.73542473 44.94725968 101.86758904 43 107 C44.41523598 106.68618917 45.83042943 106.3721865 47.24560547 106.05810547 C48.42774124 105.79584671 48.42774124 105.79584671 49.63375854 105.52828979 C62.84752802 102.57816839 75.93344733 99.22662068 88.984375 95.625 C90.80196226 95.12456007 92.6196744 94.62457348 94.4375 94.125 C95.36288574 93.87065186 96.28827148 93.61630371 97.24169922 93.35424805 C105.24476202 91.17140823 113.28715083 89.16723155 121.34448242 87.19555664 C128.24690698 85.48937119 135.06572924 83.59269879 141.82543945 81.38452148 C145.34559673 80.27926683 147.48839029 79.92637164 151 81 C150.06244873 81.37584229 149.12489746 81.75168457 148.15893555 82.13891602 C131.09566436 88.98645338 114.06627789 95.89537752 97.1875 103.1875 C83.37847102 109.15208022 69.51609065 114.97913807 55.625 120.75 C39.79273049 127.32882249 23.97739084 133.94507225 8.1875 140.625 C-6.40560606 146.79745336 -21.00745617 152.94812507 -35.625 159.0625 C-36.50944794 159.43249115 -37.39389587 159.8024823 -38.30514526 160.1836853 C-45.42515173 163.16192765 -52.54592858 166.13832619 -59.66674805 169.11462402 C-65.90319809 171.72137451 -72.13931754 174.32891387 -78.375 176.9375 C-79.25650726 177.3062323 -80.13801453 177.6749646 -81.04623413 178.05487061 C-94.06660916 183.50250859 -107.07364189 188.98116766 -120.07357788 194.47738647 C-122.92130214 195.6806558 -125.76972087 196.88226461 -128.6184082 198.08325195 C-130.48259234 198.86928512 -132.34676884 199.65533639 -134.2109375 200.44140625 C-135.12161484 200.82537064 -136.03229218 201.20933502 -136.9705658 201.60493469 C-142.13969104 203.78636028 -147.30242632 205.98200919 -152.45977783 208.19111633 C-227.20010619 240.18133866 -227.20010619 240.18133866 -259.84765625 229.32421875 C-273.77585658 223.47333906 -281.00800476 214.57247244 -287 201 C-292.12763696 185.61708913 -287.46777267 165.0454622 -280.53125 150.9609375 C-279.77328125 149.49527344 -279.77328125 149.49527344 -279 148 C-278.34362077 146.67975174 -277.68738162 145.35943383 -277.03125 144.0390625 C-270.1906233 130.49936053 -261.68391574 118.66715309 -252 107 C-251.59168945 106.50677246 -251.18337891 106.01354492 -250.76269531 105.50537109 C-243.1955758 96.38724451 -235.46771392 87.30058798 -227 79 C-228.18352352 82.07225536 -229.47496057 85.07941989 -230.83984375 88.07421875 C-238.74560055 105.42374434 -245.68426223 125.08308363 -238.9375 144.0625 C-234.54712613 153.9408412 -227.99268846 160.21206538 -218.01171875 164.19140625 C-203.00547307 169.15887166 -188.12776452 167.48016581 -173 164 C-171.66544481 163.70666601 -170.33080856 163.41370057 -168.99609375 163.12109375 C-160.23783352 161.15980472 -151.59215521 158.82476197 -142.94482422 156.42700195 C-135.16062239 154.28182853 -127.33818064 152.31260947 -119.5 150.375 C-111.50213606 148.39695924 -103.55721165 146.35781253 -95.65625 144.0234375 C-90.54766442 142.59347017 -85.39996409 141.33406166 -80.25 140.0625 C-73.13646861 138.30606572 -66.04850864 136.5020488 -59 134.5 C-50.91733142 132.20420982 -42.77606336 130.17833879 -34.61914062 128.16455078 C-28.14004138 126.55725978 -21.72749335 124.81866513 -15.3203125 122.9453125 C-11.35378907 121.81601995 -7.37155465 120.76715739 -3.375 119.75 C-2.69888672 119.57452637 -2.02277344 119.39905273 -1.32617188 119.21826172 C1.93298364 118.40017076 4.60765506 118 8 118 C7.67 99.19 7.34 80.38 7 61 C0.07 79.48 -6.86 97.96 -14 117 C-23.9 117 -33.8 117 -44 117 C-43.11323145 112.56615727 -41.83905207 108.62673874 -40.2265625 104.4375 C-39.94730927 103.70261353 -39.66805603 102.96772705 -39.38034058 102.21057129 C-38.46552968 99.80564469 -37.54526365 97.40284472 -36.625 95 C-35.98333768 93.31590233 -35.34206577 91.63165587 -34.70117188 89.94726562 C-33.40849859 86.55134632 -32.11384772 83.1561923 -30.81738281 79.76171875 C-28.80103086 74.48126058 -26.79566944 69.19669194 -24.79272461 63.91113281 C-23.9297999 61.63411976 -23.06602808 59.35742756 -22.20141602 57.08105469 C-19.89121299 50.99795816 -17.58876798 44.91207939 -15.29763794 38.82177734 C-14.03206857 35.45809245 -12.76458226 32.09513103 -11.49707031 28.73217773 C-10.88200488 27.09859094 -10.26788409 25.46464812 -9.65478516 23.83032227 C-8.79440623 21.53700667 -7.93071185 19.24496309 -7.06640625 16.953125 C-6.8157692 16.28238953 -6.56513214 15.61165405 -6.30690002 14.92059326 C-4.38447079 9.83716882 -2.21783896 4.99013767 0 0 Z " fill="#F2F3E7" transform="translate(337,142)"/>
<path d="M0 0 C5.61925232 -0.09982274 11.23797418 -0.1719136 16.85791016 -0.21972656 C18.76457729 -0.23968492 20.67118448 -0.2668616 22.57763672 -0.30175781 C47.36600808 -0.74371095 47.36600808 -0.74371095 57.5 7.3125 C63.37642881 13.15220113 65.230981 16.94403827 65.5 25.25 C65.02638789 40.75697711 57.28722742 51.34043195 46.4375 61.859375 C39.44525547 68 39.44525547 68 35 68 C35.19335938 69.00417969 35.38671875 70.00835937 35.5859375 71.04296875 C37.01126663 78.5057423 38.34527789 85.96394853 39.4609375 93.48046875 C40.25916966 98.69211496 41.14625907 103.88857536 42.03515625 109.08544922 C43 114.78623349 43 114.78623349 43 117 C32.77 117 22.54 117 12 117 C6.22551253 87.53530752 6.22551253 87.53530752 6 73 C5.34 73 4.68 73 4 73 C3.89421631 73.65991943 3.78843262 74.31983887 3.67944336 74.99975586 C2.81995872 78.7950152 1.49322544 82.36856611 0.12890625 86.00390625 C-0.15348404 86.76420639 -0.43587433 87.52450653 -0.7268219 88.30784607 C-1.32267384 89.90959584 -1.92036268 91.51066333 -2.51977539 93.11108398 C-3.43510126 95.55609251 -4.34397066 98.00342809 -5.25195312 100.45117188 C-5.83295255 102.01055859 -6.41432035 103.56980812 -6.99609375 105.12890625 C-7.26699326 105.85815811 -7.53789276 106.58740997 -7.81700134 107.33876038 C-9.0678715 110.67072815 -10.40509284 113.81018569 -12 117 C-22.56 117 -33.12 117 -44 117 C-42.15901504 111.47704512 -40.31110462 106.05566329 -38.25 100.625 C-36.35639588 95.61655004 -34.48129021 90.60237737 -32.640625 85.57421875 C-28.25545319 73.59773538 -23.72280928 61.6777518 -19.18774414 49.75740051 C-17.47222451 45.24670113 -15.76394603 40.73330193 -14.05859375 36.21875 C-13.57263235 34.93341541 -13.08663015 33.64809625 -12.60058594 32.36279297 C-11.69264318 29.9611683 -10.78566061 27.5591803 -9.87988281 25.15673828 C-6.69038397 16.72839594 -3.37039584 8.35718372 0 0 Z " fill="#F1F2E6" transform="translate(164,142)"/>
<path d="M0 0 C1.34888732 0.00015905 2.69778075 0.00584927 4.04663086 0.01586914 C5.10991859 0.01799156 5.10991859 0.01799156 6.19468689 0.02015686 C8.46699173 0.02577096 10.73919936 0.03832576 13.01147461 0.05102539 C14.54858257 0.05603858 16.08569206 0.0606018 17.62280273 0.06469727 C21.39823103 0.07574497 25.17358632 0.09301898 28.94897461 0.11352539 C21.51587764 20.72621 13.74585515 41.20321822 5.88110352 61.65478516 C5.4963385 62.65565155 5.11157349 63.65651794 4.71514893 64.68771362 C3.98603134 66.58352686 3.25620615 68.47906815 2.52557373 70.3742981 C2.20042786 71.21918793 1.87528198 72.06407776 1.5402832 72.93457031 C1.255914 73.67237228 0.9715448 74.41017426 0.67855835 75.17033386 C-0.89361146 79.35769013 -1.21699753 82.63227763 -1.05102539 87.11352539 C0.09913715 88.47574846 0.09913715 88.47574846 3.19897461 88.42602539 C7.62824172 88.0569198 8.78997769 87.13842897 11.94897461 84.11352539 C13.4255627 81.57499558 13.4255627 81.57499558 14.44116211 78.70336914 C14.85462891 77.63844238 15.2680957 76.57351562 15.6940918 75.47631836 C16.10820312 74.36659668 16.52231445 73.256875 16.94897461 72.11352539 C17.36050781 71.0489209 17.77204102 69.98431641 18.19604492 68.88745117 C19.505936 65.48995289 20.79214928 62.08420591 22.07397461 58.67602539 C22.54787806 57.42073487 23.02200411 56.16552837 23.49633789 54.91040039 C24.48207053 52.30151528 25.46685376 49.69227487 26.45092773 47.08276367 C28.66718415 41.20787646 30.89409183 35.33702899 33.12127686 29.46627808 C33.80012203 27.67641578 34.47831989 25.88630802 35.15649414 24.09619141 C35.99852468 21.8749398 36.84174379 19.6541383 37.6862793 17.43383789 C38.57520095 15.09637957 39.46098242 12.75772584 40.34448242 10.41821289 C40.79404297 9.23485352 41.24360352 8.05149414 41.70678711 6.83227539 C42.11300293 5.75913086 42.51921875 4.68598633 42.93774414 3.58032227 C43.94897461 1.11352539 43.94897461 1.11352539 44.94897461 0.11352539 C47.32465981 0.02512869 49.67106135 -0.00177766 52.04663086 0.01586914 C53.10991859 0.01799156 53.10991859 0.01799156 54.19468689 0.02015686 C56.46699173 0.02577096 58.73919936 0.03832576 61.01147461 0.05102539 C62.54858257 0.05603858 64.08569206 0.0606018 65.62280273 0.06469727 C69.39823103 0.07574497 73.17358632 0.09301898 76.94897461 0.11352539 C72.85435663 12.24823761 68.38561253 24.17280923 63.57250977 36.04101562 C61.22330717 41.85683345 58.97594756 47.67796716 56.94897461 53.61352539 C54.47479792 60.8149703 51.74820052 67.90739752 48.94897461 74.98852539 C48.34375977 76.54023438 48.34375977 76.54023438 47.72631836 78.12329102 C40.65430323 95.84880803 31.90817448 108.80951311 14.13647461 116.92602539 C7.533917 119.38580176 1.17074595 119.36256873 -5.80102539 119.42602539 C-7.37110352 119.46953125 -7.37110352 119.46953125 -8.97290039 119.51391602 C-16.53123477 119.57532748 -23.04495114 118.61791327 -28.8972168 113.49853516 C-34.20201456 108.04209913 -36.14461502 101.46580242 -36.48852539 93.98852539 C-36.11915863 82.90752257 -32.05070162 72.65134277 -27.75756836 62.58496094 C-25.68207992 57.71300756 -23.82975603 52.8101673 -22.11352539 47.80102539 C-19.36210789 39.81199209 -16.2539837 31.99055527 -13.08227539 24.16040039 C-10.72279558 18.32976278 -8.46103305 12.46198871 -6.22119141 6.58447266 C-3.74271714 0.1392625 -3.74271714 0.1392625 0 0 Z " fill="#F1F2E6" transform="translate(251.051025390625,141.886474609375)"/>
<path d="M0 0 C8.00343938 0.76956148 8.00343938 0.76956148 11 4 C12.19722459 8.30689884 11.6928354 12.47196576 9.859375 16.515625 C6.95845382 21.12656287 3.99117735 24.60423487 -1 27 C-3.70129003 27.5676624 -6.23288202 27.80916428 -9 28 C-8.34143875 21.87433503 -6.07751787 16.35389066 -3.9375 10.625 C-3.37192383 9.09166016 -3.37192383 9.09166016 -2.79492188 7.52734375 C-1.86799899 5.01643873 -0.93623553 2.50744426 0 0 Z " fill="#070707" transform="translate(185,168)"/>
<path d="M0 0 C-5.28 1.98 -10.56 3.96 -16 6 C-15.67 4.68 -15.34 3.36 -15 2 C-13.25364835 1.46706165 -11.50272348 0.94909337 -9.75 0.4375 C-8.77546875 0.14746094 -7.8009375 -0.14257812 -6.796875 -0.44140625 C-4 -1 -4 -1 0 0 Z " fill="#C5C6BC" transform="translate(488,223)"/>
<path d="M0 0 C0.33 0.66 0.66 1.32 1 2 C-2.58373871 9.43293954 -2.58373871 9.43293954 -7 11 C-7.99 11.66 -8.98 12.32 -10 13 C-8.48446596 9.52224821 -6.4226544 7.0442016 -3.875 4.25 C-3.15054688 3.45078125 -2.42609375 2.6515625 -1.6796875 1.828125 C-0.84824219 0.92320312 -0.84824219 0.92320312 0 0 Z " fill="#C8C9C0" transform="translate(109,221)"/>
</svg>
